<svg width="11" height="11" viewBox="0 0 11 11" fill="none" xmlns="http://www.w3.org/2000/svg">
<path fill-rule="evenodd" clip-rule="evenodd" d="M0.583618 5.40637C0.583618 2.64105 2.82727 0.399292 5.59485 0.399292C8.36255 0.399292 10.6061 2.64105 10.6061 5.40637C10.6061 8.17169 8.36255 10.4135 5.59485 10.4135C2.82727 10.4135 0.583618 8.17169 0.583618 5.40637ZM3.67981 7.39978H4.59009V4.47339H3.67981V7.39978ZM4.13513 4.07336C3.84338 4.07336 3.60718 3.83704 3.60718 3.5459C3.6073 3.25507 3.84338 3.01874 4.13513 3.01874C4.42615 3.01874 4.6626 3.25507 4.6626 3.5459C4.6626 3.8371 4.42603 4.07336 4.13513 4.07336ZM7.08997 7.39978H7.99951V5.79468C7.99951 5.00671 7.82935 4.40063 6.90759 4.40063C6.46472 4.40063 6.16785 4.64319 6.04626 4.87329H6.03406V4.47339H5.16101V7.39972H6.07056V5.95209C6.07056 5.57037 6.14331 5.20074 6.6167 5.20074C7.08362 5.20074 7.08997 5.63727 7.08997 5.97662V7.39978Z" fill="#BABBC3"/>
</svg>
