<svg width="11" height="11" viewBox="0 0 11 11" fill="none" xmlns="http://www.w3.org/2000/svg">
<path fill-rule="evenodd" clip-rule="evenodd" d="M0.601074 5.12115C0.601074 2.3559 2.84473 0.114075 5.6123 0.114075C8.37988 0.114075 10.6235 2.3559 10.6235 5.12115C10.6235 7.88641 8.37988 10.1282 5.6123 10.1282C2.84473 10.1282 0.601074 7.88641 0.601074 5.12115ZM5.47424 6.05347C5.57153 6.24182 5.85425 6.40765 6.15479 6.40765C7.04993 6.40765 7.65723 5.5752 7.65686 4.46033C7.65686 3.61792 6.95715 2.83313 5.89417 2.83313C4.57129 2.83313 3.90417 3.80072 3.90417 4.60767C3.90417 5.09589 4.08533 5.53052 4.47449 5.69269C4.53809 5.7193 4.59534 5.69379 4.61389 5.62177C4.61975 5.59875 4.62939 5.55963 4.6394 5.51904C4.651 5.47162 4.66321 5.42218 4.67041 5.39392C4.68921 5.32263 4.68188 5.29755 4.63049 5.23547C4.51807 5.10065 4.44678 4.92596 4.44678 4.67853C4.44678 3.961 4.97314 3.31842 5.81763 3.31842C6.56543 3.31842 6.97644 3.78412 6.97644 4.40674C6.97644 5.22552 6.62085 5.91687 6.09338 5.91687C5.80212 5.91687 5.58411 5.67126 5.65393 5.36987C5.6842 5.2395 5.72485 5.10535 5.76428 4.97485C5.83374 4.74548 5.89978 4.52759 5.89978 4.36206C5.89978 4.12976 5.77734 3.93549 5.52417 3.93549C5.22632 3.93549 4.98718 4.24976 4.98718 4.67078C4.98718 4.9389 5.07617 5.12024 5.07617 5.12024C5.07617 5.12024 4.77161 6.43756 4.71802 6.66803C4.66968 6.87811 4.6626 7.10895 4.66931 7.30396C4.68958 7.479 4.85925 7.62158 5.00635 7.4295C5.1095 7.26074 5.2207 7.04767 5.27844 6.83417C5.31274 6.70789 5.47424 6.05347 5.47424 6.05347Z" fill="#BABBC3"/>
</svg>
