<svg width="11" height="11" viewBox="0 0 11 11" fill="none" xmlns="http://www.w3.org/2000/svg">
<path fill-rule="evenodd" clip-rule="evenodd" d="M0.619385 5.18848C0.619385 2.42316 2.86304 0.181396 5.63062 0.181396C8.39832 0.181396 10.6418 2.42316 10.6418 5.18848C10.6418 7.9538 8.39832 10.1956 5.63062 10.1956C2.86304 10.1956 0.619385 7.9538 0.619385 5.18848ZM7.66077 4.61255C7.66077 4.57446 7.66003 4.5365 7.65857 4.49866C7.84692 4.36102 8.00854 4.19244 8.13892 3.9975C8.14478 3.98871 8.14417 3.97711 8.13733 3.96893C8.13049 3.96088 8.11914 3.95813 8.1095 3.96252C7.96643 4.026 7.81592 4.07153 7.66089 4.09851C7.82556 3.97479 7.94812 3.80347 8.01099 3.60706C8.01392 3.5976 8.01086 3.58734 8.00317 3.58118C7.99536 3.57507 7.98474 3.57428 7.97632 3.57935C7.79077 3.68921 7.58997 3.76666 7.37927 3.80957C7.19226 3.61584 6.9314 3.505 6.6615 3.505C6.11243 3.505 5.66565 3.95129 5.66565 4.49994C5.66565 4.56628 5.67212 4.63208 5.68481 4.69586C4.92432 4.64893 4.21313 4.28406 3.72961 3.69153C3.72461 3.68549 3.71704 3.68207 3.70923 3.68286C3.70154 3.68341 3.69458 3.68774 3.69067 3.69452C3.60229 3.84576 3.55566 4.01874 3.55566 4.19476C3.55566 4.49982 3.69446 4.78503 3.93066 4.97314C3.80896 4.9585 3.69031 4.92035 3.58313 4.8609C3.57593 4.85681 3.56702 4.85687 3.55981 4.86108C3.55261 4.86523 3.5481 4.8728 3.54785 4.88116L3.54773 4.89386C3.54773 5.33191 3.83667 5.71667 4.2478 5.8443C4.13953 5.86188 4.02722 5.86047 3.91675 5.83954C3.90857 5.83807 3.90002 5.84082 3.89453 5.84711C3.88892 5.85339 3.88708 5.86212 3.88965 5.87012C4.01294 6.25464 4.35547 6.52411 4.75403 6.55774C4.42151 6.80109 4.02844 6.92938 3.61316 6.92938C3.53662 6.92938 3.45947 6.92493 3.38416 6.91595C3.37329 6.91467 3.36267 6.92114 3.35901 6.93152C3.35522 6.94196 3.35913 6.95355 3.36853 6.95953C3.81787 7.24756 4.33765 7.39972 4.87134 7.39972C6.61743 7.39972 7.66077 5.9826 7.66077 4.61255Z" fill="#BABBC3"/>
</svg>
